<svg xmlns="http://www.w3.org/2000/svg" width="599" height="419" viewBox="0 0 599 419" fill="none">
  <g fill="#C5C7C9" fill-rule="evenodd">
    <path d="M 596 79 L 589 71 L 563 47 L 556 46 L 552 50 L 551 54 L 553 58 L 570 74 L 569 75 L 566 74 L 552 74 L 551 75 L 550 74 L 548 75 L 547 74 L 540 74 L 539 75 L 538 74 L 537 75 L 536 74 L 535 75 L 534 74 L 533 75 L 531 74 L 527 75 L 526 74 L 524 75 L 523 74 L 522 75 L 516 75 L 515 74 L 511 75 L 510 74 L 508 75 L 507 74 L 503 75 L 502 74 L 501 75 L 499 74 L 495 75 L 494 74 L 493 75 L 491 74 L 489 75 L 486 74 L 485 75 L 483 74 L 478 74 L 477 75 L 474 74 L 473 75 L 468 75 L 467 74 L 461 74 L 460 75 L 458 74 L 455 75 L 454 74 L 453 75 L 451 74 L 447 75 L 446 74 L 444 75 L 443 74 L 439 75 L 438 74 L 437 75 L 435 74 L 431 75 L 430 74 L 429 75 L 427 74 L 423 75 L 422 74 L 413 74 L 412 75 L 411 74 L 409 75 L 406 74 L 397 74 L 396 75 L 395 74 L 393 75 L 392 74 L 391 75 L 390 74 L 388 75 L 387 74 L 360 74 L 359 75 L 358 74 L 349 74 L 348 75 L 347 74 L 343 75 L 342 74 L 318 74 L 313 77 L 312 82 L 314 86 L 318 88 L 559 88 L 560 87 L 561 88 L 566 88 L 569 87 L 570 88 L 551 108 L 552 113 L 555 116 L 560 117 L 564 115 L 595 85 Z"/>
    <path d="M 4 79 L 4 84 L 8 89 L 37 116 L 45 115 L 47 112 L 47 106 L 30 89 L 31 88 L 161 88 L 164 87 L 167 84 L 167 78 L 165 75 L 159 75 L 158 74 L 157 75 L 155 74 L 153 75 L 148 75 L 147 74 L 142 74 L 141 75 L 139 74 L 138 75 L 131 75 L 130 74 L 129 75 L 123 75 L 122 74 L 121 75 L 115 75 L 114 74 L 113 75 L 51 75 L 50 74 L 49 75 L 36 75 L 31 74 L 29 75 L 28 74 L 47 55 L 46 49 L 41 46 L 38 46 L 33 49 Z"/>
    <path d="M 224 38 L 217 44 L 210 56 L 209 61 L 210 78 L 273 232 L 272 233 L 262 226 L 247 221 L 231 222 L 225 224 L 217 229 L 212 234 L 206 245 L 206 259 L 210 269 L 218 280 L 310 376 L 331 393 L 343 400 L 357 406 L 370 410 L 374 410 L 379 412 L 386 412 L 387 413 L 420 413 L 421 412 L 427 412 L 442 409 L 462 402 L 478 394 L 488 387 L 510 365 L 522 343 L 528 320 L 529 287 L 528 286 L 528 279 L 524 260 L 514 230 L 500 197 L 486 169 L 486 167 L 477 151 L 468 143 L 459 139 L 453 139 L 452 138 L 445 138 L 434 141 L 424 149 L 415 140 L 404 135 L 384 136 L 373 142 L 370 146 L 361 138 L 355 135 L 347 133 L 337 133 L 329 135 L 323 138 L 314 146 L 290 90 L 288 83 L 281 69 L 278 59 L 269 44 L 263 39 L 255 35 L 247 33 L 238 33 L 230 35 Z M 229 52 L 236 48 L 245 47 L 255 51 L 260 57 L 298 148 L 319 192 L 329 216 L 336 228 L 339 229 L 344 228 L 347 225 L 348 221 L 340 201 L 323 165 L 323 158 L 330 150 L 338 147 L 346 147 L 354 150 L 360 156 L 374 186 L 377 195 L 383 206 L 383 208 L 390 222 L 395 226 L 398 226 L 402 224 L 404 221 L 404 218 L 396 198 L 380 164 L 379 157 L 382 153 L 390 149 L 395 148 L 396 149 L 402 149 L 406 151 L 413 158 L 441 222 L 444 225 L 447 226 L 452 225 L 455 222 L 455 216 L 439 181 L 436 172 L 433 168 L 432 162 L 438 155 L 446 152 L 457 154 L 466 162 L 484 200 L 491 218 L 493 220 L 501 240 L 511 273 L 512 284 L 513 285 L 513 295 L 514 296 L 513 316 L 507 338 L 501 350 L 496 357 L 478 375 L 469 381 L 453 389 L 445 391 L 442 393 L 417 398 L 390 398 L 389 397 L 372 395 L 360 391 L 339 380 L 329 372 L 313 357 L 228 268 L 221 255 L 222 246 L 227 240 L 235 236 L 248 236 L 263 243 L 280 259 L 288 270 L 293 281 L 298 287 L 301 288 L 305 287 L 309 284 L 309 278 L 307 272 L 298 253 L 290 231 L 281 212 L 249 132 L 242 118 L 237 103 L 227 81 L 224 72 L 223 64 L 225 57 Z"/>
    <path d="M 283 21 L 271 13 L 264 10 L 245 6 L 227 8 L 218 11 L 204 19 L 189 35 L 183 47 L 180 60 L 180 74 L 182 84 L 187 96 L 195 108 L 201 112 L 204 112 L 209 108 L 209 103 L 201 92 L 196 80 L 194 65 L 197 52 L 202 42 L 213 30 L 228 22 L 252 21 L 265 26 L 276 34 L 285 45 L 290 55 L 293 65 L 300 68 L 302 67 L 306 62 L 303 49 L 294 33 Z"/>
  </g>
</svg>
